<mxfile host="app.diagrams.net" agent="Mozilla/5.0 (Windows NT 10.0; Win64; x64) AppleWebKit/537.36 (KHTML, like Gecko) Chrome/132.0.0.0 Safari/537.36 OPR/117.0.0.0" version="26.2.13">
  <diagram name="Page-1" id="2YBvvXClWsGukQMizWep">
    <mxGraphModel dx="718" dy="430" grid="0" gridSize="10" guides="1" tooltips="1" connect="1" arrows="1" fold="1" page="1" pageScale="1" pageWidth="850" pageHeight="1100" math="0" shadow="0">
      <root>
        <mxCell id="0" />
        <mxCell id="1" parent="0" />
        <mxCell id="ajyaEeoIFrPa3JYMastW-1" value="" style="shape=umlLifeline;perimeter=lifelinePerimeter;whiteSpace=wrap;html=1;container=1;dropTarget=0;collapsible=0;recursiveResize=0;outlineConnect=0;portConstraint=eastwest;newEdgeStyle={&quot;curved&quot;:0,&quot;rounded&quot;:0};participant=umlActor;fillColor=light-dark(#FFFFFF,#000000);strokeColor=light-dark(#000000,#000000);" vertex="1" parent="1">
          <mxGeometry x="227" y="85" width="20" height="398" as="geometry" />
        </mxCell>
        <mxCell id="ajyaEeoIFrPa3JYMastW-2" value="" style="html=1;points=[[0,0,0,0,5],[0,1,0,0,-5],[1,0,0,0,5],[1,1,0,0,-5]];perimeter=orthogonalPerimeter;outlineConnect=0;targetShapes=umlLifeline;portConstraint=eastwest;newEdgeStyle={&quot;curved&quot;:0,&quot;rounded&quot;:0};fillColor=light-dark(#FFFFFF,#FFFFFF);strokeColor=light-dark(#000000,#000000);" vertex="1" parent="ajyaEeoIFrPa3JYMastW-1">
          <mxGeometry x="5" y="64" width="10" height="55" as="geometry" />
        </mxCell>
        <mxCell id="ajyaEeoIFrPa3JYMastW-3" value="&lt;b&gt;:Système de Gestion&lt;/b&gt;" style="shape=umlLifeline;perimeter=lifelinePerimeter;whiteSpace=wrap;html=1;container=0;dropTarget=0;collapsible=0;recursiveResize=0;outlineConnect=0;portConstraint=eastwest;newEdgeStyle={&quot;edgeStyle&quot;:&quot;elbowEdgeStyle&quot;,&quot;elbow&quot;:&quot;vertical&quot;,&quot;curved&quot;:0,&quot;rounded&quot;:0};fillColor=light-dark(#FFFFFF, #ffffff);strokeColor=light-dark(#000000,#000000);labelBackgroundColor=none;fontColor=light-dark(#000000,#000000);" vertex="1" parent="1">
          <mxGeometry x="336" y="84" width="100" height="398" as="geometry" />
        </mxCell>
        <mxCell id="ajyaEeoIFrPa3JYMastW-4" value="&lt;span style=&quot;color: rgba(0, 0, 0, 0); font-family: monospace; font-size: 0px; text-align: start;&quot;&gt;%3CmxGraphModel%3E%3Croot%3E%3CmxCell%20id%3D%220%22%2F%3E%3CmxCell%20id%3D%221%22%20parent%3D%220%22%2F%3E%3CmxCell%20id%3D%222%22%20value%3D%22%26lt%3Bb%20style%3D%26quot%3Bfont-size%3A%209px%3B%26quot%3B%26gt%3B%3AVisiteur%2FParticipant%26lt%3B%2Fb%26gt%3B%22%20style%3D%22text%3Bhtml%3D1%3Balign%3Dcenter%3BverticalAlign%3Dmiddle%3BwhiteSpace%3Dwrap%3Brounded%3D0%3BfillColor%3D%23FFFFFF%3B%22%20vertex%3D%221%22%20parent%3D%221%22%3E%3CmxGeometry%20x%3D%22213%22%20y%3D%22122%22%20width%3D%2254%22%20height%3D%2210%22%20as%3D%22geometry%22%2F%3E%3C%2FmxCell%3E%3C%2Froot%3E%3C%2FmxGraphModel%3E&lt;/span&gt;" style="html=1;points=[[0,0,0,0,5],[0,1,0,0,-5],[1,0,0,0,5],[1,1,0,0,-5]];perimeter=orthogonalPerimeter;outlineConnect=0;targetShapes=umlLifeline;portConstraint=eastwest;newEdgeStyle={&quot;curved&quot;:0,&quot;rounded&quot;:0};fillColor=light-dark(#FFFFFF,#FFFFFF);strokeColor=light-dark(#000000,#000000);" vertex="1" parent="ajyaEeoIFrPa3JYMastW-3">
          <mxGeometry x="45" y="70" width="10" height="42" as="geometry" />
        </mxCell>
        <mxCell id="ajyaEeoIFrPa3JYMastW-5" value="" style="endArrow=block;endFill=1;endSize=12;html=1;rounded=0;strokeColor=light-dark(#000000,#000000);exitX=1;exitY=0;exitDx=0;exitDy=5;exitPerimeter=0;" edge="1" parent="1" source="ajyaEeoIFrPa3JYMastW-2">
          <mxGeometry width="160" relative="1" as="geometry">
            <mxPoint x="252" y="156" as="sourcePoint" />
            <mxPoint x="379" y="154" as="targetPoint" />
          </mxGeometry>
        </mxCell>
        <mxCell id="ajyaEeoIFrPa3JYMastW-6" value="&lt;b&gt;:Administrateur&lt;/b&gt;" style="shape=umlLifeline;perimeter=lifelinePerimeter;whiteSpace=wrap;html=1;container=1;dropTarget=0;collapsible=0;recursiveResize=0;outlineConnect=0;portConstraint=eastwest;newEdgeStyle={&quot;curved&quot;:0,&quot;rounded&quot;:0};fillColor=light-dark(#FFFFFF,#FFFFFF);fontColor=light-dark(#000000,#000000);strokeColor=light-dark(#000000,#000000);" vertex="1" parent="1">
          <mxGeometry x="451" y="85" width="164.5" height="397" as="geometry" />
        </mxCell>
        <mxCell id="ajyaEeoIFrPa3JYMastW-8" value="" style="html=1;points=[[0,0,0,0,5],[0,1,0,0,-5],[1,0,0,0,5],[1,1,0,0,-5]];perimeter=orthogonalPerimeter;outlineConnect=0;targetShapes=umlLifeline;portConstraint=eastwest;newEdgeStyle={&quot;curved&quot;:0,&quot;rounded&quot;:0};fillColor=light-dark(#FFFFFF,#FFFFFF);strokeColor=light-dark(#000000,#000000);" vertex="1" parent="ajyaEeoIFrPa3JYMastW-6">
          <mxGeometry x="-70.5" y="327" width="10" height="26" as="geometry" />
        </mxCell>
        <mxCell id="ajyaEeoIFrPa3JYMastW-9" value="" style="html=1;points=[[0,0,0,0,5],[0,1,0,0,-5],[1,0,0,0,5],[1,1,0,0,-5]];perimeter=orthogonalPerimeter;outlineConnect=0;targetShapes=umlLifeline;portConstraint=eastwest;newEdgeStyle={&quot;curved&quot;:0,&quot;rounded&quot;:0};fillColor=light-dark(#FFFFFF,#FFFFFF);strokeColor=light-dark(#000000,#000000);" vertex="1" parent="ajyaEeoIFrPa3JYMastW-6">
          <mxGeometry x="-219.5" y="325" width="10" height="38" as="geometry" />
        </mxCell>
        <mxCell id="ajyaEeoIFrPa3JYMastW-10" value="&lt;b style=&quot;font-size: 9px;&quot;&gt;Notification Accepté()&lt;/b&gt;" style="text;html=1;align=center;verticalAlign=middle;whiteSpace=wrap;rounded=0;" vertex="1" parent="ajyaEeoIFrPa3JYMastW-6">
          <mxGeometry x="-195.57999999999998" y="312" width="114.72" height="17" as="geometry" />
        </mxCell>
        <mxCell id="ajyaEeoIFrPa3JYMastW-11" value="" style="endArrow=open;html=1;rounded=0;strokeColor=light-dark(#000000,#000000);dashed=1;strokeWidth=1;endFill=0;entryX=0;entryY=1;entryDx=0;entryDy=0;" edge="1" parent="ajyaEeoIFrPa3JYMastW-6">
          <mxGeometry width="50" height="50" relative="1" as="geometry">
            <mxPoint x="-70.5" y="329" as="sourcePoint" />
            <mxPoint x="-211.22000000000003" y="329" as="targetPoint" />
          </mxGeometry>
        </mxCell>
        <mxCell id="ajyaEeoIFrPa3JYMastW-12" value="&lt;span style=&quot;color: rgba(0, 0, 0, 0); font-family: monospace; font-size: 0px; text-align: start;&quot;&gt;%3CmxGraphModel%3E%3Croot%3E%3CmxCell%20id%3D%220%22%2F%3E%3CmxCell%20id%3D%221%22%20parent%3D%220%22%2F%3E%3CmxCell%20id%3D%222%22%20value%3D%22%26lt%3Bb%20style%3D%26quot%3Bfont-size%3A%209px%3B%26quot%3B%26gt%3B%3AVisiteur%2FParticipant%26lt%3B%2Fb%26gt%3B%22%20style%3D%22text%3Bhtml%3D1%3Balign%3Dcenter%3BverticalAlign%3Dmiddle%3BwhiteSpace%3Dwrap%3Brounded%3D0%3BfillColor%3D%23FFFFFF%3B%22%20vertex%3D%221%22%20parent%3D%221%22%3E%3CmxGeometry%20x%3D%22213%22%20y%3D%22122%22%20width%3D%2254%22%20height%3D%2210%22%20as%3D%22geometry%22%2F%3E%3C%2FmxCell%3E%3C%2Froot%3E%3C%2FmxGraphModel%3E&lt;/span&gt;" style="html=1;points=[[0,0,0,0,5],[0,1,0,0,-5],[1,0,0,0,5],[1,1,0,0,-5]];perimeter=orthogonalPerimeter;outlineConnect=0;targetShapes=umlLifeline;portConstraint=eastwest;newEdgeStyle={&quot;curved&quot;:0,&quot;rounded&quot;:0};fillColor=light-dark(#FFFFFF,#FFFFFF);strokeColor=light-dark(#000000,#000000);" vertex="1" parent="ajyaEeoIFrPa3JYMastW-6">
          <mxGeometry x="78.25" y="138" width="10" height="34" as="geometry" />
        </mxCell>
        <mxCell id="ajyaEeoIFrPa3JYMastW-13" value="&lt;font style=&quot;color: light-dark(rgb(0, 0, 0), rgb(0, 0, 0)); font-size: 9px;&quot;&gt;&lt;b style=&quot;&quot;&gt;DecisionValidation()&lt;/b&gt;&lt;/font&gt;" style="text;html=1;align=center;verticalAlign=middle;whiteSpace=wrap;rounded=0;" vertex="1" parent="ajyaEeoIFrPa3JYMastW-6">
          <mxGeometry x="-49" y="151" width="118" height="22" as="geometry" />
        </mxCell>
        <mxCell id="ajyaEeoIFrPa3JYMastW-14" style="edgeStyle=orthogonalEdgeStyle;rounded=0;orthogonalLoop=1;jettySize=auto;html=1;exitX=0.5;exitY=1;exitDx=0;exitDy=0;" edge="1" parent="ajyaEeoIFrPa3JYMastW-6">
          <mxGeometry relative="1" as="geometry">
            <mxPoint x="3" y="140" as="sourcePoint" />
            <mxPoint x="3" y="140" as="targetPoint" />
          </mxGeometry>
        </mxCell>
        <mxCell id="ajyaEeoIFrPa3JYMastW-15" value="&lt;font style=&quot;color: light-dark(rgb(0, 0, 0), rgb(0, 0, 0)); font-size: 9px;&quot;&gt;&lt;b style=&quot;&quot;&gt;1:Demande de reservation()&lt;/b&gt;&lt;/font&gt;" style="text;html=1;align=center;verticalAlign=middle;whiteSpace=wrap;rounded=0;" vertex="1" parent="1">
          <mxGeometry x="239" y="135" width="129" height="22" as="geometry" />
        </mxCell>
        <mxCell id="ajyaEeoIFrPa3JYMastW-16" value="" style="endArrow=block;endFill=1;endSize=12;html=1;rounded=0;strokeColor=light-dark(#000000,#000000);" edge="1" parent="1">
          <mxGeometry width="160" relative="1" as="geometry">
            <mxPoint x="395" y="229" as="sourcePoint" />
            <mxPoint x="530" y="229" as="targetPoint" />
          </mxGeometry>
        </mxCell>
        <mxCell id="ajyaEeoIFrPa3JYMastW-17" value="&lt;font style=&quot;color: light-dark(rgb(0, 0, 0), rgb(0, 0, 0)); font-size: 9px;&quot;&gt;&lt;b style=&quot;&quot;&gt;3.1:NotifierAdmin()&lt;/b&gt;&lt;/font&gt;" style="text;html=1;align=center;verticalAlign=middle;whiteSpace=wrap;rounded=0;" vertex="1" parent="1">
          <mxGeometry x="395" y="206" width="118" height="22" as="geometry" />
        </mxCell>
        <mxCell id="ajyaEeoIFrPa3JYMastW-18" value="" style="endArrow=open;html=1;rounded=0;strokeColor=light-dark(#000000,#000000);dashed=1;strokeWidth=1;endFill=0;" edge="1" parent="1">
          <mxGeometry width="50" height="50" relative="1" as="geometry">
            <mxPoint x="535.05" y="257" as="sourcePoint" />
            <mxPoint x="398.9973684210527" y="257" as="targetPoint" />
          </mxGeometry>
        </mxCell>
        <mxCell id="ajyaEeoIFrPa3JYMastW-19" value="&lt;b style=&quot;font-size: 9px;&quot;&gt;:Visiteur&lt;/b&gt;" style="text;html=1;align=center;verticalAlign=middle;whiteSpace=wrap;rounded=0;fillColor=#FFFFFF;" vertex="1" parent="1">
          <mxGeometry x="191" y="125" width="105" height="10" as="geometry" />
        </mxCell>
        <mxCell id="ajyaEeoIFrPa3JYMastW-20" value="" style="endArrow=open;html=1;rounded=0;strokeColor=light-dark(#000000,#000000);dashed=1;strokeWidth=1;endFill=0;" edge="1" parent="1">
          <mxGeometry width="50" height="50" relative="1" as="geometry">
            <mxPoint x="380.5" y="196" as="sourcePoint" />
            <mxPoint x="241" y="196" as="targetPoint" />
          </mxGeometry>
        </mxCell>
        <mxCell id="ajyaEeoIFrPa3JYMastW-21" value="&lt;font style=&quot;color: light-dark(rgb(0, 0, 0), rgb(0, 0, 0)); font-size: 9px;&quot;&gt;&lt;b&gt;2:Formulaire d&#39;inscription()&lt;/b&gt;&lt;/font&gt;" style="text;html=1;align=center;verticalAlign=middle;whiteSpace=wrap;rounded=0;" vertex="1" parent="1">
          <mxGeometry x="246" y="174" width="125" height="22" as="geometry" />
        </mxCell>
        <mxCell id="ajyaEeoIFrPa3JYMastW-22" value="&lt;font style=&quot;color: light-dark(rgb(0, 0, 0), rgb(0, 0, 0)); font-size: 9px;&quot;&gt;&lt;b style=&quot;&quot;&gt;[Decision Acceptée]&lt;/b&gt;&lt;/font&gt;" style="text;html=1;align=center;verticalAlign=middle;whiteSpace=wrap;rounded=0;" vertex="1" parent="1">
          <mxGeometry x="225" y="375" width="129" height="22" as="geometry" />
        </mxCell>
        <mxCell id="ajyaEeoIFrPa3JYMastW-23" value="Alt" style="shape=umlFrame;whiteSpace=wrap;html=1;pointerEvents=0;" vertex="1" parent="1">
          <mxGeometry x="102" y="278" width="520" height="203" as="geometry" />
        </mxCell>
        <mxCell id="ajyaEeoIFrPa3JYMastW-24" value="&lt;font style=&quot;color: light-dark(rgb(0, 0, 0), rgb(0, 0, 0)); font-size: 9px;&quot;&gt;&lt;b&gt;3:Remplir le formulaire()&lt;/b&gt;&lt;/font&gt;" style="text;html=1;align=center;verticalAlign=middle;whiteSpace=wrap;rounded=0;" vertex="1" parent="1">
          <mxGeometry x="244.92000000000002" y="210" width="114.72" height="17" as="geometry" />
        </mxCell>
        <mxCell id="ajyaEeoIFrPa3JYMastW-25" value="&lt;font style=&quot;color: light-dark(rgb(0, 0, 0), rgb(0, 0, 0)); font-size: 9px;&quot;&gt;&lt;b style=&quot;&quot;&gt;[Decision rejetée]&lt;/b&gt;&lt;/font&gt;" style="text;html=1;align=center;verticalAlign=middle;whiteSpace=wrap;rounded=0;" vertex="1" parent="1">
          <mxGeometry x="218" y="278" width="129" height="22" as="geometry" />
        </mxCell>
        <mxCell id="ajyaEeoIFrPa3JYMastW-26" value="" style="html=1;points=[[0,0,0,0,5],[0,1,0,0,-5],[1,0,0,0,5],[1,1,0,0,-5]];perimeter=orthogonalPerimeter;outlineConnect=0;targetShapes=umlLifeline;portConstraint=eastwest;newEdgeStyle={&quot;curved&quot;:0,&quot;rounded&quot;:0};fillColor=light-dark(#FFFFFF,#FFFFFF);strokeColor=light-dark(#000000,#000000);" vertex="1" parent="1">
          <mxGeometry x="386" y="229" width="10" height="34" as="geometry" />
        </mxCell>
        <mxCell id="ajyaEeoIFrPa3JYMastW-27" value="" style="endArrow=block;endFill=1;endSize=12;html=1;rounded=0;strokeColor=light-dark(#000000,#000000);" edge="1" parent="1">
          <mxGeometry width="160" relative="1" as="geometry">
            <mxPoint x="240" y="229" as="sourcePoint" />
            <mxPoint x="389" y="229" as="targetPoint" />
          </mxGeometry>
        </mxCell>
        <mxCell id="ajyaEeoIFrPa3JYMastW-28" value="" style="html=1;points=[[0,0,0,0,5],[0,1,0,0,-5],[1,0,0,0,5],[1,1,0,0,-5]];perimeter=orthogonalPerimeter;outlineConnect=0;targetShapes=umlLifeline;portConstraint=eastwest;newEdgeStyle={&quot;curved&quot;:0,&quot;rounded&quot;:0};fillColor=light-dark(#FFFFFF,#FFFFFF);strokeColor=light-dark(#000000,#000000);" vertex="1" parent="1">
          <mxGeometry x="231" y="228" width="10" height="39" as="geometry" />
        </mxCell>
        <mxCell id="ajyaEeoIFrPa3JYMastW-29" value="" style="html=1;points=[[0,0,0,0,5],[0,1,0,0,-5],[1,0,0,0,5],[1,1,0,0,-5]];perimeter=orthogonalPerimeter;outlineConnect=0;targetShapes=umlLifeline;portConstraint=eastwest;newEdgeStyle={&quot;curved&quot;:0,&quot;rounded&quot;:0};fillColor=light-dark(#FFFFFF,#FFFFFF);strokeColor=light-dark(#000000,#000000);" vertex="1" parent="1">
          <mxGeometry x="382.64" y="325" width="10" height="26" as="geometry" />
        </mxCell>
        <mxCell id="ajyaEeoIFrPa3JYMastW-30" value="" style="html=1;points=[[0,0,0,0,5],[0,1,0,0,-5],[1,0,0,0,5],[1,1,0,0,-5]];perimeter=orthogonalPerimeter;outlineConnect=0;targetShapes=umlLifeline;portConstraint=eastwest;newEdgeStyle={&quot;curved&quot;:0,&quot;rounded&quot;:0};fillColor=light-dark(#FFFFFF,#FFFFFF);strokeColor=light-dark(#000000,#000000);" vertex="1" parent="1">
          <mxGeometry x="233.64" y="323" width="10" height="38" as="geometry" />
        </mxCell>
        <mxCell id="ajyaEeoIFrPa3JYMastW-31" value="" style="endArrow=open;html=1;rounded=0;strokeColor=light-dark(#000000,#000000);dashed=1;strokeWidth=1;endFill=0;entryX=0;entryY=1;entryDx=0;entryDy=0;" edge="1" parent="1">
          <mxGeometry width="50" height="50" relative="1" as="geometry">
            <mxPoint x="382.64" y="327" as="sourcePoint" />
            <mxPoint x="241.91999999999996" y="327" as="targetPoint" />
          </mxGeometry>
        </mxCell>
        <mxCell id="ajyaEeoIFrPa3JYMastW-32" value="&lt;font style=&quot;color: light-dark(rgb(0, 0, 0), rgb(0, 0, 0)); font-size: 9px;&quot;&gt;&lt;b style=&quot;&quot;&gt;Notification rejeté()&lt;/b&gt;&lt;/font&gt;" style="text;html=1;align=center;verticalAlign=middle;whiteSpace=wrap;rounded=0;" vertex="1" parent="1">
          <mxGeometry x="255.27999999999997" y="306" width="114.72" height="24" as="geometry" />
        </mxCell>
        <mxCell id="ajyaEeoIFrPa3JYMastW-35" value="" style="line;strokeWidth=1;fillColor=none;align=left;verticalAlign=middle;spacingTop=-1;spacingLeft=3;spacingRight=3;rotatable=0;labelPosition=right;points=[];portConstraint=eastwest;strokeColor=inherit;dashed=1;" vertex="1" parent="1">
          <mxGeometry x="105" y="366" width="516" height="8" as="geometry" />
        </mxCell>
        <mxCell id="ajyaEeoIFrPa3JYMastW-36" value="&lt;font style=&quot;color: light-dark(rgb(0, 0, 0), rgb(0, 0, 0)); font-size: 9px;&quot;&gt;&lt;b style=&quot;&quot;&gt;[Else]&lt;/b&gt;&lt;/font&gt;" style="text;html=1;align=center;verticalAlign=middle;whiteSpace=wrap;rounded=0;" vertex="1" parent="1">
          <mxGeometry x="62.00000000000003" y="350" width="129" height="22" as="geometry" />
        </mxCell>
      </root>
    </mxGraphModel>
  </diagram>
</mxfile>
